<mxfile>
    <diagram id="zqOOfs8UBTVCIb0sJ63z" name="Page-1">
        <mxGraphModel dx="719" dy="310" grid="1" gridSize="10" guides="1" tooltips="1" connect="1" arrows="1" fold="1" page="1" pageScale="1" pageWidth="827" pageHeight="1169" background="none" math="0" shadow="0">
            <root>
                <mxCell id="0"/>
                <mxCell id="1" parent="0"/>
                <mxCell id="8EAQV7HGh1oppnWuFU27-1" value="Customer" style="swimlane;childLayout=stackLayout;horizontal=1;startSize=30;horizontalStack=0;rounded=1;fontSize=14;fontStyle=0;strokeWidth=2;resizeParent=0;resizeLast=1;shadow=0;dashed=0;align=center;" parent="1" vertex="1">
                    <mxGeometry x="40" y="40" width="160" height="140" as="geometry">
                        <mxRectangle x="40" y="40" width="90" height="30" as="alternateBounds"/>
                    </mxGeometry>
                </mxCell>
                <mxCell id="8EAQV7HGh1oppnWuFU27-2" value="# id&#10;* firstname&#10;* lastname&#10;* birthdate&#10;# email&#10;o phonenumber&#10;* pass_hash&#10;" style="align=left;strokeColor=none;fillColor=none;spacingLeft=4;fontSize=12;verticalAlign=top;resizable=0;rotatable=0;part=1;" parent="8EAQV7HGh1oppnWuFU27-1" vertex="1">
                    <mxGeometry y="30" width="160" height="110" as="geometry"/>
                </mxCell>
                <mxCell id="8EAQV7HGh1oppnWuFU27-3" value="Address" style="swimlane;childLayout=stackLayout;horizontal=1;startSize=30;horizontalStack=0;rounded=1;fontSize=14;fontStyle=0;strokeWidth=2;resizeParent=0;resizeLast=1;shadow=0;dashed=0;align=center;" parent="1" vertex="1">
                    <mxGeometry x="280" y="40" width="160" height="130" as="geometry">
                        <mxRectangle x="280" y="40" width="80" height="30" as="alternateBounds"/>
                    </mxGeometry>
                </mxCell>
                <mxCell id="8EAQV7HGh1oppnWuFU27-4" value="# id&#10;* street&#10;* housenr&#10;* postcode&#10;* city&#10;* country&#10;" style="align=left;strokeColor=none;fillColor=none;spacingLeft=4;fontSize=12;verticalAlign=top;resizable=0;rotatable=0;part=1;" parent="8EAQV7HGh1oppnWuFU27-3" vertex="1">
                    <mxGeometry y="30" width="160" height="100" as="geometry"/>
                </mxCell>
                <mxCell id="8EAQV7HGh1oppnWuFU27-6" value="Product" style="swimlane;childLayout=stackLayout;horizontal=1;startSize=30;horizontalStack=0;rounded=1;fontSize=14;fontStyle=0;strokeWidth=2;resizeParent=0;resizeLast=1;shadow=0;dashed=0;align=center;" parent="1" vertex="1">
                    <mxGeometry x="150" y="600" width="160" height="130" as="geometry"/>
                </mxCell>
                <mxCell id="8EAQV7HGh1oppnWuFU27-7" value="# id&#10;* name&#10;o description&#10;o image_url&#10;* amount&#10;* price" style="align=left;strokeColor=none;fillColor=none;spacingLeft=4;fontSize=12;verticalAlign=top;resizable=0;rotatable=0;part=1;" parent="8EAQV7HGh1oppnWuFU27-6" vertex="1">
                    <mxGeometry y="30" width="160" height="100" as="geometry"/>
                </mxCell>
                <mxCell id="8EAQV7HGh1oppnWuFU27-8" value="Order" style="swimlane;childLayout=stackLayout;horizontal=1;startSize=30;horizontalStack=0;rounded=1;fontSize=14;fontStyle=0;strokeWidth=2;resizeParent=0;resizeLast=1;shadow=0;dashed=0;align=center;" parent="1" vertex="1">
                    <mxGeometry x="150" y="230" width="160" height="120" as="geometry"/>
                </mxCell>
                <mxCell id="8EAQV7HGh1oppnWuFU27-9" value="# id&#10;* order_date&#10;* order_time&#10;* total_price&#10;* order_status&#10;" style="align=left;strokeColor=none;fillColor=none;spacingLeft=4;fontSize=12;verticalAlign=top;resizable=0;rotatable=0;part=1;" parent="8EAQV7HGh1oppnWuFU27-8" vertex="1">
                    <mxGeometry y="30" width="160" height="90" as="geometry"/>
                </mxCell>
                <mxCell id="8EAQV7HGh1oppnWuFU27-10" value="Orderposition" style="swimlane;childLayout=stackLayout;horizontal=1;startSize=30;horizontalStack=0;rounded=1;fontSize=14;fontStyle=0;strokeWidth=2;resizeParent=0;resizeLast=1;shadow=0;dashed=0;align=center;" parent="1" vertex="1">
                    <mxGeometry x="150" y="420" width="160" height="120" as="geometry"/>
                </mxCell>
                <mxCell id="8EAQV7HGh1oppnWuFU27-11" value="# pos_nr&#10;* quantity&#10;" style="align=left;strokeColor=none;fillColor=none;spacingLeft=4;fontSize=12;verticalAlign=top;resizable=0;rotatable=0;part=1;" parent="8EAQV7HGh1oppnWuFU27-10" vertex="1">
                    <mxGeometry y="30" width="160" height="90" as="geometry"/>
                </mxCell>
                <mxCell id="8EAQV7HGh1oppnWuFU27-23" value="" style="edgeStyle=entityRelationEdgeStyle;fontSize=12;html=1;endArrow=ERmany;" parent="1" source="8EAQV7HGh1oppnWuFU27-4" target="8EAQV7HGh1oppnWuFU27-2" edge="1">
                    <mxGeometry width="100" height="100" relative="1" as="geometry">
                        <mxPoint x="380" y="400" as="sourcePoint"/>
                        <mxPoint x="480" y="300" as="targetPoint"/>
                    </mxGeometry>
                </mxCell>
                <mxCell id="8EAQV7HGh1oppnWuFU27-28" value="" style="edgeStyle=entityRelationEdgeStyle;fontSize=12;html=1;endArrow=ERmany;exitX=0.4;exitY=1;exitDx=0;exitDy=0;exitPerimeter=0;" parent="1" source="8EAQV7HGh1oppnWuFU27-2" target="8EAQV7HGh1oppnWuFU27-9" edge="1">
                    <mxGeometry width="100" height="100" relative="1" as="geometry">
                        <mxPoint x="380" y="400" as="sourcePoint"/>
                        <mxPoint x="480" y="300" as="targetPoint"/>
                    </mxGeometry>
                </mxCell>
                <mxCell id="8EAQV7HGh1oppnWuFU27-31" value="" style="edgeStyle=entityRelationEdgeStyle;fontSize=12;html=1;endArrow=ERoneToMany;exitX=1;exitY=0.422;exitDx=0;exitDy=0;exitPerimeter=0;" parent="1" source="8EAQV7HGh1oppnWuFU27-9" target="8EAQV7HGh1oppnWuFU27-10" edge="1">
                    <mxGeometry width="100" height="100" relative="1" as="geometry">
                        <mxPoint x="380" y="400" as="sourcePoint"/>
                        <mxPoint x="480" y="300" as="targetPoint"/>
                    </mxGeometry>
                </mxCell>
                <mxCell id="hEnhNm0cxcNL_pd9e-mG-1" value="Employee" style="swimlane;childLayout=stackLayout;horizontal=1;startSize=30;horizontalStack=0;rounded=1;fontSize=14;fontStyle=0;strokeWidth=2;resizeParent=0;resizeLast=1;shadow=0;dashed=0;align=center;" parent="1" vertex="1">
                    <mxGeometry x="520" y="40" width="160" height="180" as="geometry"/>
                </mxCell>
                <mxCell id="hEnhNm0cxcNL_pd9e-mG-2" value="# id&#10;* firstname&#10;* lastname&#10;* birthdate&#10;# email&#10;o phonenumber&#10;* department&#10;* is_admin&#10;* pass_hash" style="align=left;strokeColor=none;fillColor=none;spacingLeft=4;fontSize=12;verticalAlign=top;resizable=0;rotatable=0;part=1;" parent="hEnhNm0cxcNL_pd9e-mG-1" vertex="1">
                    <mxGeometry y="30" width="160" height="150" as="geometry"/>
                </mxCell>
                <mxCell id="hEnhNm0cxcNL_pd9e-mG-3" value="" style="edgeStyle=entityRelationEdgeStyle;fontSize=12;html=1;endArrow=ERmany;" parent="1" source="8EAQV7HGh1oppnWuFU27-4" target="hEnhNm0cxcNL_pd9e-mG-2" edge="1">
                    <mxGeometry width="100" height="100" relative="1" as="geometry">
                        <mxPoint x="360" y="430" as="sourcePoint"/>
                        <mxPoint x="460" y="330" as="targetPoint"/>
                    </mxGeometry>
                </mxCell>
                <mxCell id="Em4FRezPKKzcfL9CsdWH-1" value="" style="edgeStyle=entityRelationEdgeStyle;fontSize=12;html=1;endArrow=ERmany;entryX=0.994;entryY=0.656;entryDx=0;entryDy=0;entryPerimeter=0;" parent="1" source="8EAQV7HGh1oppnWuFU27-7" target="8EAQV7HGh1oppnWuFU27-11" edge="1">
                    <mxGeometry width="100" height="100" relative="1" as="geometry">
                        <mxPoint x="490" y="410" as="sourcePoint"/>
                        <mxPoint x="590" y="310" as="targetPoint"/>
                    </mxGeometry>
                </mxCell>
            </root>
        </mxGraphModel>
    </diagram>
</mxfile>